<?xml version="1.0" encoding="UTF-8"?>
<!DOCTYPE svg PUBLIC "-//W3C//DTD SVG 1.1//EN" "http://www.w3.org/Graphics/SVG/1.1/DTD/svg11.dtd">
<!-- Creator: CorelDRAW 2019 (64-Bit) -->
<svg xmlns="http://www.w3.org/2000/svg" xml:space="preserve" width="16.2118cm" height="16.2118cm" version="1.1" style="shape-rendering:geometricPrecision; text-rendering:geometricPrecision; image-rendering:optimizeQuality; fill-rule:evenodd; clip-rule:evenodd"
viewBox="0 0 15811.66 15811.66"
 xmlns:xlink="http://www.w3.org/1999/xlink"
 xmlns:xodm="http://www.corel.com/coreldraw/odm/2003">
 <defs>
  <style type="text/css">
   <![CDATA[
    .fil5 {fill:#312C29}
    .fil3 {fill:#332B29}
    .fil10 {fill:#352D2A}
    .fil9 {fill:#551E1A}
    .fil17 {fill:#621C24}
    .fil25 {fill:#652C29}
    .fil21 {fill:#691B18}
    .fil27 {fill:#6B2D10}
    .fil14 {fill:#781A1A}
    .fil15 {fill:#782727}
    .fil16 {fill:#882827}
    .fil26 {fill:#8B1716}
    .fil23 {fill:#926B08}
    .fil11 {fill:#961616}
    .fil18 {fill:#B0904C}
    .fil8 {fill:#B2171A}
    .fil2 {fill:#B31917}
    .fil4 {fill:#B41719}
    .fil12 {fill:#B5880A}
    .fil0 {fill:#B61817}
    .fil7 {fill:#C99933}
    .fil24 {fill:#CE9E5A}
    .fil20 {fill:#D4AE51}
    .fil22 {fill:#E8B737}
    .fil19 {fill:#F8D2CF}
    .fil13 {fill:#F9B0B0}
    .fil1 {fill:#FAB815}
    .fil6 {fill:#FAB913}
   ]]>
  </style>
 </defs>
 <g id="Layer_x0020_1">
  <metadata id="CorelCorpID_0Corel-Layer"/>
  <g id="_1575583494480">
   <path class="fil0" d="M21.17 7510.54c-9.58,278.66 -13.88,523.41 0.78,802.93 -27.45,197.23 102.24,983.36 151.88,1222.04 82.48,396.59 227.77,888.73 374.98,1255.61 116.74,290.93 174.14,388.07 286.03,640.42l514.21 881.67 634.18 823.45c1.64,1.96 3.93,4.82 5.57,6.78l534.82 552.24 370.83 320.93c212.96,172.3 369.26,290.79 595.94,441.71l511.41 316.22c284.42,163.89 632.6,341.08 935.51,460.37 30.14,11.88 50.87,17.39 82.79,28.38l602.94 212.35c189.76,53.18 351.83,101.37 549.96,141.79 53.73,10.96 131.73,32.36 192.15,42.56 75.28,12.71 128.73,29.16 196.14,38.55 322.52,44.97 491.92,79.6 810.05,89.71l28.02 0.95 260.07 22.45 538.17 0c50.8,-21.23 147.99,-18.41 214.69,-22.16l416.54 -30.7c232.76,-28.65 557.77,-79.84 781.7,-132.42 686.04,-161.08 1413.69,-404.71 2029.82,-749.58 201.11,-112.56 387.26,-219.5 579.09,-347.37 218.51,-145.65 477.34,-321.23 673.25,-487.91l370.63 -321.12c197.54,-165.12 716.94,-741.25 885.99,-966.95l645.6 -972.62c293.66,-525.36 376.3,-741.95 577.45,-1275.48 98.09,-260.15 189.32,-634.68 254,-907.17 44.44,-187.18 114.72,-597.6 133.99,-792.48 13.37,-135.16 34.89,-305.41 32.43,-430.46 2.38,-54.18 -0.4,-135.43 18.87,-179.7l0 -484.37c-25.81,-63.18 -17.37,-182.96 -22.26,-262.39 20.55,-136.24 -74.59,-807.63 -123,-1028.27l-129.75 -574.36c-13.41,-57.26 -35.26,-118.23 -53.3,-181.41 -142.69,-499.63 -442.3,-1222.73 -694.51,-1640.19 -113.48,-187.84 -235.07,-402.03 -360.8,-578.01 -32.42,-45.38 -62.23,-91.75 -96.95,-137.76 -68.89,-91.31 -132.9,-176.58 -201.11,-268.29l-371.84 -443.45c-21.59,-23.35 -38.99,-38.79 -61.93,-61.6l-111.63 -123.07c-38.49,-43.02 -75.89,-76.82 -116.89,-117.82 -80.24,-80.27 -154.2,-141.8 -234.52,-222.54 -241.38,-242.62 -767.03,-615.83 -1063.12,-814.53 -50.2,-33.69 -91.86,-56.73 -143.26,-91.45 -140.82,-95.08 -619.48,-346.91 -764.57,-408.94 -620.34,-265.21 -689.54,-307.51 -1372.02,-493.26 -314.37,-85.56 -879.35,-197.46 -1193.44,-214.79 -127.45,-7.03 -306.53,-44.68 -432.71,-27.08 -249.68,-10.12 -479.1,-10.46 -728.82,1.07l-848.98 79.16c-26.12,4.4 -60.87,15.56 -91.73,19.45 -209.63,26.44 -478.02,91.2 -685.01,142.64l-542.36 161.75c-374.73,124.94 -795.51,308.81 -1146.68,496.24l-591.15 347.68c-26.65,16.98 -41.87,24.29 -68.19,42.97l-213.57 144.67c-92.7,61.34 -181.21,132.99 -271.85,197.55 -26.69,19.02 -34.47,30.67 -59.8,51.38l-197.88 160.35c-108.88,85.93 -163.63,149.87 -248.66,220.75l-506.12 506.82c-1.72,1.87 -4.13,4.62 -5.82,6.52l-179.84 203.1c-19.3,25.04 -31.25,35.48 -51.22,59.95 -18.68,22.87 -32.63,45.36 -52.66,70.87 -35.63,45.35 -73.42,83.26 -108.07,126.65 -18.17,22.75 -27.76,42.76 -45.6,65.57 -20.1,25.7 -33.28,39.85 -54.81,68.72l-239.64 340.95c-451.54,717.33 -607.52,1032.36 -893.35,1811.91l-163.75 540.38c-73.99,315.41 -210.06,894.63 -219.09,1189.13 -4.21,137.3 -42.71,299.39 -28.26,432.34z"/>
   <path class="fil1" d="M7618.02 319.9c-1168.56,64.51 -2139.08,311.06 -3041.56,760.57 -897.57,447.06 -1502.71,911.96 -2193.29,1611.41 -411.52,416.81 -921.27,1138.38 -1186.11,1654.94 -592.8,1156.28 -950.88,2425.27 -880.58,3855.5 58.35,1186.93 322.65,2120.47 760.16,3036.92 298.97,626.25 744.61,1268.67 1195.93,1769.08 1486.68,1648.36 3663.83,2577.5 5942.52,2492.88 3097.36,-115.03 5657.35,-2110.54 6709.36,-4677.65 382.13,-932.46 637.91,-2058.92 574.09,-3220.62 -94.93,-1727.93 -663.38,-3215.54 -1689.05,-4476.74 -800.39,-984.18 -1795.4,-1726.9 -2989.89,-2235.27 -884.76,-376.55 -2096.77,-632.02 -3201.58,-571.04z"/>
   <path class="fil2" d="M7639.18 2678.2c-1146.4,74.66 -2034.64,422.08 -2885.57,1049.93 -133.94,98.82 -238.87,195.15 -358.79,296l-330.28 324.46c-773.31,834.96 -1478.02,2182.63 -1389.26,3828.52 151.73,2813.29 2505.61,5102.81 5514.92,4964.05 2793.76,-128.81 5106.25,-2552.87 4948.5,-5519.71 -40.54,-762.55 -254.39,-1482.95 -549.83,-2064.29 -236.27,-464.92 -475.02,-793.31 -798.46,-1165.63 -87.82,-101.09 -385.87,-392.24 -497.8,-477.87 -214.21,-163.83 -293.57,-250.91 -567.47,-420.6 -900.4,-557.82 -1953.9,-888.6 -3085.96,-814.87z"/>
   <path class="fil3" d="M7512.87 2767.57c-49.93,-1.72 -134.29,-0.66 -182.14,8.14 -46.15,8.5 -93.71,20.11 -156.69,19.39 -20.47,27.41 -15.95,19.7 -62.26,19.25 -63.25,-1.39 -163.02,19.48 -227.91,32.27 -69.32,13.66 -145.69,38.15 -218.35,47.79l-5.34 17.83 -33.36 0.14 -59.41 5.99 -2.25 20.01 -40.4 4.46 -114.86 21.07 -2.09 20.4 -39.37 4.8 -43.53 -0.65 -2.08 22.64 -40.56 2.31c-68.26,6.85 -97.05,39.33 -167.37,50.62l-3.42 19.14 -33.47 5.7c-63.64,5.96 -93.04,38.5 -153.92,45.23 -5.55,31.29 5.66,23.36 -40.9,30.75l-132.14 50.5c-14.5,31.02 17.7,9.83 -32.66,22.45 -49.09,10.09 -18.06,12.02 -70.86,25.19 -9.99,29.33 14.07,11.1 -26.51,22.58l-23.51 0.92c-11.29,30.21 5.25,14.14 -29.41,24.67 -57.58,13.24 -1.89,7.97 -61.3,22.09l-1.24 21.09 -25.79 4.01 -19.35 1.46c-9.91,29.62 10.67,13.37 -29.06,22.87l-19.53 2.22 -23.16 25.63 -21.71 0.06c-13.74,32.11 12.2,11.06 -27.51,25.35 -46.5,15.63 -5.72,7.82 -54.69,20.72l-1.54 23.21 -22.79 4.25 -19.96 -0.96c-11.54,31.68 11.35,12.13 -25.71,25.92 -49.1,17.66 -2.53,5.4 -48.76,22.94l-1.45 22.7 -27.54 3.62c-48.09,15.28 -2.44,2.73 -49.32,23.56 -7.19,33.97 10.94,13.76 -23.33,26.56 -44.9,14.29 -6.65,5.54 -51.31,22.01 -6.42,30.23 8.47,14.46 -24.92,25.72l-11.29 -2 -1.04 22.27 -26.79 3.97 -9.36 -1.56c-7.7,32.09 8.8,14.7 -23.45,27.56l-10.08 -1.48 -24.56 27.87 -75.08 46.66c-8.79,31.45 13.86,11.79 -28.03,27.16l-7.07 -2.79c-10.51,32.07 9.62,12.36 -23.78,28.44 -51.2,27.06 -80.51,65.82 -130.79,93.36l-0.56 22.46 -21.75 3.77c-8.99,35.88 10.46,13.93 -25.27,28.12 -40.94,16.07 -105.5,89.38 -147.96,118.85l-1.55 23.19 -24.78 1.26 -0.55 24.73 -23.86 4.92 -219.13 213.28 -2.38 27.86 -25.89 0.47 -19.52 29.91 -22.08 27.82c-59.07,39.69 -96.42,114.5 -154.45,165.26 -6.6,37.05 10.71,13.42 -21.51,33.77 -39.75,48.49 -71.32,86.75 -102.24,127.78 -31.48,41.75 -71.65,87.6 -97.57,133.78 -11.55,40.76 7,15.84 -24.91,33.43 -18.77,30.36 -30.48,42.93 -48.52,70.15 -23.53,35.49 -35.97,54.99 -54.49,81.55 -32.12,46.04 -69.89,106.55 -96.96,155.13l-2.04 29.38 -21.57 5.43c-15.36,37.9 -30.54,59.01 -46.2,86.55l-154.02 291.58c-36.7,74.79 -60.21,127.81 -89.01,194.47 -30.42,70.4 -61.09,135.02 -83.43,209.49l-17.78 40.33c-41.36,152.3 -110.56,326.46 -167.98,545.27 -335.63,1278.95 -108.84,2813.87 591.2,3923.71 20.7,32.82 51.18,77.88 67.95,114.1 36.72,17.89 14.65,-7.43 26.25,34.34 22.22,39.19 44.8,70.34 70.56,107.61 12.78,18.46 20.4,28.83 35.72,51.25 20.58,30.12 18.43,32.64 44.19,52.7 29.12,20.14 9.64,-8.53 20.83,34.18l27.47 35.36c37.15,26.15 14.62,-4.21 23.23,33.21l17.98 4.61 3.63 30.73c102.02,120.36 198.51,238.95 305.38,353.82 56.54,60.75 107.18,109.62 164.24,168.82 43.62,45.25 117.68,119.01 175.43,158.9l24.23 25.1c36.66,11.97 16.38,-6.09 25.47,28.77 19.16,7.73 21.63,9.74 34.13,19.38 37.1,12.1 18.14,-6.75 27.07,25.95l24.95 25.39c18.1,10.21 22.91,13.45 36.52,23.25 36.92,14.45 15.45,-6.2 24.77,27.45l50.16 33.44c2.01,1.38 5.48,3.69 7.3,4.93l14.66 9.71c39.61,8.53 39.21,17.95 53.32,48.73l9.06 -0.17 25.2 5.25 0.73 21.94 11.08 -3.57c35.39,11.64 16.18,-5.85 28.7,23.77 32.11,14.77 12.67,-8.13 20.98,27.24 45.38,17.68 6.51,6.5 49.85,24.79 33.37,11.92 15.66,-6.33 23.51,27.35 47.16,15.22 1.87,4.72 50.17,21.7 33.33,10.25 17.46,-5.68 25.21,25.28 44.18,19.83 77.61,57.03 120.79,72.48l27.97 4.14 1.68 21.71 19.58 1.04 25.14 5.01 1.35 20.53c23.25,9.26 24.2,9.94 42.37,20.26 52.75,21.13 20.95,3.06 32.48,29.92 38.12,8.46 61.21,33.34 101.76,43.61l31.39 9.7 1.67 21.85c38.02,9.27 73.08,36.28 109.3,45.2l28.26 1.81 1.51 22.9c52.65,14.32 19.78,15.69 71.26,24.99l35.31 6.61 1.21 20 34.97 2.85 3.65 22.4 25.35 -3.75 32.01 7.88 1.89 20.79c56.7,8.89 83.84,41.26 142.5,44.57 57.52,15.43 18.74,-3.2 38.45,26.06l25.27 4.3 28.71 3.56 2.87 18.12 25.94 -0.62 30.96 6.94 3.21 20.04c53.41,4.22 35.95,15.95 99.94,23.2 53.41,11.96 23.44,-0.58 40.85,24.14l32.63 1.47 33.6 6.73 3.81 18.3c70.31,1.42 52.17,15.74 111.95,23.25 47.82,5.77 38.4,-3.18 49.14,25.21 64.73,3.14 216.25,51.79 277.27,67.17 68.76,17.32 235.58,55.85 303.94,55.42 45.73,0.43 60.67,-8.42 80.34,23.74l91.29 0.92c13.67,0.52 50.84,0.8 63.36,3.21 51.14,9.85 24.59,-7.63 34.96,23.65l593.97 24.81 593.85 -24.78c3.72,-33.66 85.98,-28.83 117.78,-30.16l214.48 -20.37c2.76,-33.46 31.38,-23.82 65.08,-25.74 90.08,2.56 157.14,-29.58 233.61,-45.6 75.61,-15.84 157.23,-48.03 227.56,-54.8l2.34 -17.35 37.54 -1.64 29.97 -0.71c2.68,-33.33 15.54,-23.14 48.59,-27.05 65.31,-4.44 52.79,-19.18 112.91,-27.82l4.84 -18.57 32.88 -2.89 216.47 -74.33c15.39,-27.18 -16.19,-12.02 36.89,-26.3l28.98 4.19c12.07,-28.31 -11.85,-13.85 31.8,-28.46l26.71 0.96c13.46,-26.25 -18.04,-11.39 34.98,-26.52l16.72 2.52 1.61 -20.32 31.96 -8.28c37.98,-5.37 22.68,-3.44 62.6,-21.8 29.7,-13.65 25.05,-16.7 60.45,-25.5l1.82 -19.15 27.92 -4.36 18.68 -1.2 2.55 -21.92 29 -2.88 27.94 -2.75c16,-29.51 -12.78,-8.62 30.78,-22.35 35.47,-15.47 74.75,-39.39 111.59,-59.77 32.04,-17.73 85.87,-52.79 119.44,-63.2 12.44,-32.13 -11.5,-10.97 25.92,-25.25l14.29 2.08 25.88 -26.16 9.18 0.67c10.47,-38.3 -13.03,-14.61 26.89,-27.85 44.16,-7.98 4.94,5.74 48.52,-21.46 11.43,-7.13 41.14,-28.67 51.8,-35.93 29.54,-20.13 70.47,-41.04 94,-62.51 9.61,-33.12 -9.97,-15.13 26.96,-27.55 47.97,-12.12 5.06,-4.09 53.38,-19.86l20.99 -27.64c10.51,-28.64 -6.91,-12.74 28.82,-23.18l9.42 1.63 0.35 -23.4 24.01 -5.07 12.92 1.85c7.73,-37.11 -11.56,-12.61 21.51,-30.14l41.67 -16c6.13,-31.72 -8.98,-15.76 23.96,-28.82 19.51,-11 22.09,-12.32 37.63,-20.93 6.82,-32.26 -10.59,-15.15 24.78,-28.08 22.01,-13.98 42.64,-32.51 60.2,-45.58l0.9 -26.63 27.32 -5.01 398.98 -372.18c15.27,-14.28 10.8,-9.7 18.47,-16.4 6.33,-35.05 -11.6,-14.89 23.19,-31.23 37.56,-35.73 69.32,-86.09 113.76,-115.59l20.67 -38.64c65.45,-72.05 120.75,-139.83 173.36,-210.56 8.03,-38.99 -15.36,-11.73 25.42,-34.64 16.96,-23.96 35.78,-45.84 50.66,-63.57 7.37,-37.08 -11.73,-15.57 24.89,-31.54 56.74,-111.98 295.23,-413.62 422.43,-705.18l19.24 -39.55c13.93,-40.51 39.45,-80.43 57.94,-122.12 142.71,-321.64 249.04,-617.1 331.6,-976.78 200.18,-872.03 173.28,-1805.75 -87.65,-2653.71 -61.73,-200.58 -126.27,-377 -200.76,-552.05 -36.04,-84.68 -80.06,-170.25 -118.32,-253.21 -34.39,-74.57 -101.47,-178.41 -128.33,-247.35 -31.31,-18.4 -14.59,6.4 -24.2,-38.07 -97.94,-173.8 -205.92,-326.85 -321.61,-488.08 -21.59,-30.11 -26.64,-37.03 -51.53,-63.64l-22.89 -40.19c-23.92,-31.84 -51.13,-54.34 -73.62,-88.62 -32.56,-17.38 -17.16,3.72 -21.7,-33.88 -49.2,-29.28 -83.65,-104.73 -131.69,-137.71 -30.03,-18.68 -12.77,4.7 -19.47,-31.85 -139.91,-129.81 -375.28,-410.53 -547.76,-513.2l-19.53 -28.78c-44.04,-19.59 -59.03,-52.02 -103.4,-72.47l-22.58 -27.39c-35.2,-13.48 -68.8,-49.79 -108.86,-72.12 -36.67,-13.51 -18.07,3.75 -25.89,-27.16l-48.11 -22.92c-32.26,-8.15 -17.19,6.47 -28.32,-22.57 -36.16,-11.77 -16.78,4.92 -26.79,-24.98 -46.56,-21.17 -3.15,-13.05 -55.29,-26.48l-24.57 -4.16 -1.2 -21.41c-35.84,-16.63 -45.94,-38.33 -87.32,-45.88 -33.26,-12.47 -18.08,3.44 -26.47,-27.49l-12.83 1.11c-39.71,-13.74 -15.2,5.47 -27.1,-25.18l-19.46 0.65 -27.61 -3.76 -1.18 -22.69c-39.07,-19.7 -2.97,-8.89 -49.26,-22.14 -39.24,-13.88 -14.52,6.62 -27.05,-25.61l-19.27 -0.13c-33.95,-10.29 -17.8,5.65 -25.85,-25.08l-19.55 -1.86 -28.89 -4.05 -1.91 -18.76 -12.42 1.07c-39.69,-14.43 -14.73,5.85 -27.76,-26.67 -66.56,-10.47 -2.19,-7.97 -66.01,-24.33 -36.82,-10.4 -17.72,8.53 -28.12,-25.18l-24.08 -0.19c-33,-8.65 -17.69,5.83 -26.02,-22.15l-22.47 -2.43c-41.57,-10.44 -18.31,7.34 -28.41,-24.26l-20.37 0.56c-50.31,-11.06 -19.5,8.49 -32.9,-21.59l-190.76 -77.12 -36.38 -5.21 -2.3 -19.57c-57.81,-8.12 -93.96,-32.7 -146.1,-51.02 -43.13,-15.15 -105.76,-43.81 -153.65,-50.2l-42.42 -3.36 -1.6 -20.87c-66.66,-2.56 -46.06,-16.92 -111.41,-23.36 -36.16,-4.49 -45.25,5.47 -51.2,-25.91l-39.9 3.68c-52.91,-6.35 -33.33,2.31 -48.39,-27.62l-35.6 0.26c-32.77,-3.36 -44.59,5.56 -51.59,-22.89l-48.66 -1.01c-56.32,-3.55 -42.57,6.6 -62.89,-24.03 -38.06,-0.37 -191.02,-28.77 -231,-39.17 -55.85,-14.52 -193.62,-36.8 -253.21,-30.28 -29.34,2.53 -162.49,1.37 -165.14,-31.62 -115.2,5.55 -216.28,-14.61 -322.89,-18.65 -96.19,-3.65 -273.59,9.72 -353.88,-4.61 -18.42,31.53 -44.07,19.62 -90.83,21.39 -37.92,1.43 -70.77,4.7 -109.02,3.66z"/>
   <path class="fil4" d="M4360.43 10357.2l245.61 -0.15 6463.28 -1.55 250.5 0.62c34.08,25.57 241.63,12.45 305.44,10.32l5.92 -2278.56 -316.15 -7.53 -242.1 -2.3 -6471.27 0.59 -234.32 3.48 -312.64 -0.51 -4.22 2271.42 309.96 4.15z"/>
   <polygon class="fil1" points="4425.83,10086.05 11253.16,10091.89 11252.94,8351.28 4428.23,8349.9 "/>
   <path class="fil3" d="M7522.95 2001.01c148.29,12.78 307.3,13.52 457.14,17.13 126.37,3.03 350.98,22.93 468.07,5.6 161.31,-23.88 320.73,-214.09 276.41,-421.99 -17.77,-83.35 -55.2,-111.66 -77.46,-168.81 28.6,-46.28 63.19,-80.37 84.55,-148.97 16.62,-53.34 14.03,-155.61 -2.45,-205.26 -34.52,-103.96 -129.47,-210.74 -243.43,-238.71 -69.08,-16.95 -860.2,-38.46 -925.82,-24.51l-37 1185.52z"/>
   <path class="fil5" d="M10180.63 1255.57c-319.83,40.19 -572.87,300.85 -535.98,648.82 61.45,579.56 743.56,709.05 1058.6,337.29 338.17,-399.05 22.68,-1054.62 -522.63,-986.11z"/>
   <path class="fil3" d="M11955.71 2330.21c-240.27,54.66 -410.94,175.82 -479.65,411.83 -187.36,643.49 637.77,1051.41 1037.73,544.16 208.42,-264.3 164.35,-630.12 -100.31,-839.08 -102.45,-80.89 -279.4,-157.49 -457.77,-116.91z"/>
   <path class="fil4" d="M4975.45 4737.88l-0.97 27.52 -25.25 -0.99 0.5 20.26 -31.82 10.34 -24.32 22.8c-25.12,14.13 -43.17,32.45 -63.11,49.54 -18.5,15.85 -36.7,34.52 -60.68,47.08l-2.34 22.7 -26.17 5.04 -394.38 342.76c-12.03,28.14 -22.88,36.96 -50.21,49.76l-0.83 24.43 -23.04 4.41c-50.95,18.52 -127.48,120.87 -183.93,142.57l-25.34 30.01c-18.78,16.3 -34.61,33.64 -60.46,47.2l-22.85 26.73c-11.4,34.02 13.49,10.72 -25.25,25.2 -35.37,14.63 -76.14,60.86 -107.95,89.71 -17.8,16.14 -34.3,28.37 -53.28,45.21 -31.93,28.3 -29.82,22.02 -41.79,62.9l717.41 0.41 -5.12 71.69c19.64,16.91 6.63,0.12 21.56,21.57 6.19,8.89 5.36,10.82 9.73,20.31 21.37,104.88 72.02,119.75 110.38,185.58 45.23,6.08 79.89,38.19 135.43,57.15 71.07,24.27 123.23,7.58 198.48,12l2.78 -20.3 35.48 -5.24c48.5,-11.43 18.72,-9.67 63.04,-23.79l1.77 -19.2 25.84 -5.02 8.87 0.97 22.28 -30.25c17.25,-11.51 5.22,-1.19 20.25,-15.64 62.42,-60.03 96.57,-162.55 91.67,-249.77l-718.95 0.35c12.19,-51.98 35.02,-69.44 86.29,-119.45l291.13 -299.05 0.93 -23.93 22.14 -5.22c8.33,-24.91 7.43,-20.34 15.83,-43.59l31.49 -7.58 24.22 -27.18 368.73 -388.87c11.3,-35.37 -12.05,-12.7 28.53,-31.44l135.7 -141.24 22.33 -34.49c33.6,-20.84 87.51,-83.68 115.05,-119.65l14.48 -49.11 -416.91 3.31c-40.8,-1.88 -49.81,8.89 -74,32.15 -23.79,22.9 -33.62,31.73 -58.2,53.08 -38.63,33.54 -81.43,78.37 -125.14,106.28z"/>
   <path class="fil4" d="M10023.33 4571.36c34.97,44.07 112.99,134.26 159.35,167.57l19.01 30.57 20.74 4.96 1.05 23.51c21.53,14.5 34.88,28.77 54.41,43.59l24.41 31.27c25.79,32.96 60.78,63.71 87.76,91.75 31.39,32.6 63.35,66.51 96.02,100.9 54.56,57.44 135.15,148.55 190.02,192.23 32.44,19.8 13.43,-2.99 22.16,32.54 23.69,25.07 2.46,4.8 26.02,18.37l22.38 31.73 128.72 136.49c1.03,0.97 3.74,3.57 5.69,5.26l25.59 6 0.36 27.33c17.09,16.81 18.38,22.12 41.59,38.5l18.38 32.4c22.33,15.76 31.56,28.59 50.8,45.57 31.25,14.69 16.47,-3.75 21.5,32.14l131.98 137.3c14.29,18.32 9.55,6.41 18.75,28.45l-678.05 3.16c-44.57,11.66 -23.12,-9.99 -41.62,34.65l610.22 0c0,97.13 -4.89,14.62 24.65,49.41l24.7 -61.77 61.83 12.36 7.32 40.78 14.67 0 -0.04 -65.46c66.2,-25.95 599.15,-6.35 723.33,-11.33 -16.29,-41.02 2.87,-7.94 -26.09,-40.21 -8.1,-9.02 -18.7,-16.9 -32.71,-29.3 -26.11,-23.09 -36.9,-37.71 -71.17,-53.35l-22.33 -26.76c-33.2,-9.92 -16.17,5.78 -25.44,-24.95 -34.39,-19.18 -112.25,-92.09 -146.59,-120.93l-25.86 -28.57c-50.35,-25.68 -70.94,-75.01 -125.87,-94.65 -37.11,-17.56 -15.65,3.19 -22.02,-26.52 -33.88,-11.04 -14.52,8.41 -25.54,-25.17 -32.88,-10.02 -14.99,8.84 -23.26,-26.32 -31.31,-14.12 -125.09,-103.61 -160.36,-134.8 -34.58,-30.59 -131.55,-120.16 -163.53,-134.16l-21.29 -26.87c-33.87,-7.21 -17.41,7.67 -28.54,-22.6 -35,-11.86 -14.51,6.8 -24.04,-26.3l-35.51 -20.98c-34.05,-14.39 -16.89,4.45 -24.42,-28.37l-25.95 -24.78c-32.27,-7.23 -17.8,4.55 -27.58,-25 -34.98,-21.54 -58.72,-46.83 -84.81,-70.5 -31.2,-28.29 -55.84,-48.24 -84.1,-72.07 -48,-19.38 -18.14,6.66 -30.75,-30.95l-4.57 4.48 -22.85 -6.14 -0.57 -26c-58.78,-34.24 -129.16,-125.88 -179,-142l-446.52 -3.18 -2.4 26.78z"/>
   <path class="fil4" d="M9060.13 4573.11c26.66,80.79 99.09,208.47 135.1,277.08 53.79,102.48 90.78,186.53 147.07,278.93l18.59 43.22c41.26,84.19 87.14,169.99 137.47,264.81 20.05,37.75 45.96,86.9 67.3,128 21.44,41.3 56.73,97.55 69.99,134.44 29.75,20.64 14.01,-6.48 21.47,40.81 4.28,8.74 10.23,22.28 14.95,28.86 28.18,39.31 3.38,14.35 30.92,29.61 19.06,9.84 26.66,-34.65 12.91,32.42l728.05 2.26c-15.16,-49.89 -174.38,-270.48 -214.39,-319.31 -36.95,-18.82 -16.11,4.58 -28.07,-34.03 -34.11,-61.64 -83.24,-112.49 -121.2,-168.41 -32.71,-48.2 -96.27,-141.87 -127.52,-168.95l-20.04 -38.7 -161.58 -212.5c-26.27,-36.73 -48.57,-66.86 -77.43,-108.28 -30.66,-44.01 -54.77,-65.99 -84.61,-108.64l-22.98 -32.01 -25.28 -44.54 -23.62 -6.48 -1.16 -26.66c-12.32,-13.49 -9.49,-11.78 -34.28,-19.27l-438.74 0.24 -2.9 27.09z"/>
   <path class="fil4" d="M8091.68 4604.4c1.09,190.29 42.84,412.06 59.24,608.96 17.14,205.62 55.38,419.26 60.9,618.25l737.16 1.97c-4.41,-96.92 -62.73,-251.14 -90.32,-337.61 -60.07,-188.25 -253.14,-865.32 -309.27,-947.84 -85.11,-10.34 -382.07,-15.06 -457.45,3.36l-0.24 52.9z"/>
   <path class="fil4" d="M6124.32 4590.59l-21.59 35.22 -517.26 708.42c-14.45,45.19 -3.65,38.53 -46.94,63.9 -53.54,62.06 -101.63,138.2 -154.08,208.51 -36.86,49.39 -132.61,167.71 -145.34,222.81l738.48 4.03c9.99,-59.71 215.96,-398.53 251.18,-492.09 7.31,-43.27 -8.36,-16.71 21.42,-37.32l2.74 -10.48c7.64,-39.81 -8.17,-18.18 22.11,-34 28.52,-78.94 329.04,-620.95 345.29,-685.38 -8.92,-38.67 20.59,-18.49 -35.19,-31.18l-186.35 0.44c-78.05,-0.02 -158.57,-5.88 -235.14,4.89 -17.45,17.88 -16.62,23.84 -39.32,42.22z"/>
   <path class="fil5" d="M3019.46 2739.47l733.49 929.89c62.52,-21.12 119.94,-88.29 174.29,-121.81 -15.05,-49.43 -242.22,-325.61 -293.22,-387.6 -47.4,-57.62 -287.25,-349.6 -300.61,-392.91 76.01,-74.57 301.47,-239.9 412.72,-330.4 41.04,-33.39 87.76,-85.46 157.55,-85.59 69.45,-0.14 118.66,49.7 125.23,120.03 7.93,84.75 -48.98,123.72 -90.92,157.45 -56.18,45.19 -247.08,183.9 -273.47,224.99 22.08,39.84 92.87,130.84 127.82,161.04 80.84,-24.09 291.73,-258.96 396.35,-274.55 142.62,-21.26 222.42,231.43 344.82,318.75 48.89,-29.89 125.73,-86.36 161.61,-131.12 -22.23,-42.54 -60.62,-83.05 -89.33,-121.92 -126.99,-171.96 -170.61,-235.25 -350.98,-290.21 -7.12,-178.34 -72.62,-294.51 -205.96,-350.95 -196.8,-83.3 -300.95,-11.13 -418.68,82.11l-461.83 365.59c-42.89,34.66 -115.1,80.95 -148.88,127.22z"/>
   <path class="fil0" d="M7455.64 5830.39c-8.69,-44.48 -5.33,-41.06 0.23,-86.88 0.3,-2.49 4.68,-32.73 5.19,-34.44 8.35,-28.54 7.73,-23.42 20.58,-39.04l104.13 -1019.27 5.69 -105.22c-124.76,-3.18 -359.35,-13.2 -474.35,7.49 -21.03,139.02 -382.56,1178.35 -394.19,1278.44l732.72 -1.08z"/>
   <path class="fil0" d="M13281.52 12204.07c34.9,24.79 72,63.45 108.98,83.62 75.25,-68.45 268.36,-333.41 334.08,-428.33 360.24,-520.35 564.33,-887.81 816.41,-1506.11 265.53,-651.31 536.78,-1791.62 491.29,-2609.78l-148.93 -0.87c-45.1,984.05 -121.18,1626.21 -480.83,2546.23 -141.12,361.01 -314.65,709.26 -499.83,1019.77 -147.25,246.89 -292.64,454.04 -459.22,677.29 -39.09,52.37 -146.55,169.89 -161.94,218.18z"/>
   <path class="fil0" d="M2384.1 12231.84l108.29 -86.41 -314.47 -426.03c-294.89,-420.17 -595.36,-972.01 -777.57,-1459.03 -297.83,-796.12 -454.58,-1548.12 -467.38,-2511.56l-151.14 -6.13c-29.85,863.94 203.56,1863.1 473.47,2564.4 213.64,555.13 471.42,1015.18 792.27,1492.92 47.08,70.11 285.09,405.12 336.53,431.84z"/>
   <path class="fil3" d="M13945.86 6054.39l73.1 -23.51 7.79 45.84 154.4 679.59c-41.8,24.56 -394.52,99.84 -467.73,114.48l40.57 208.18c63.45,20.45 998.79,-222.24 1162.51,-252.7 8.3,-58.34 -23.83,-168.37 -41.02,-217.52l-470.84 102.53 -170.55 -732.04 467.8 -106.55c0.27,-72.65 -26.72,-144.19 -39.72,-213.58 -74.39,1.33 -1056.46,227.6 -1167.21,262.84l41.55 205c115.3,12.66 294.61,-77.77 409.33,-72.57z"/>
   <path class="fil0" d="M12873.45 12033.13c26.05,22.43 78.54,67.51 109.41,87.34 108.15,-66.5 547.36,-752.24 598.57,-836.25 171.51,-281.32 339.72,-619.84 472.54,-961.18 132.33,-340.07 252.4,-720.99 325.76,-1107.69 51.75,-272.77 170.26,-1034.8 123.44,-1306.02l-144.72 0.47c-24.46,209.4 -11.64,439.17 -36.16,660.31 -141.49,1275.47 -550.37,2251.24 -1294.38,3259.49 -39.35,53.33 -132.54,154.07 -154.46,203.53z"/>
   <path class="fil0" d="M2777.32 12070.72c48.25,-18.13 89.45,-60.05 123.11,-88.01l-287.11 -390.15c-93.64,-135.67 -176.77,-268.46 -269.97,-421.53 -462.98,-760.43 -760.57,-1706.22 -851.26,-2607.64 -21.14,-210.12 -12.01,-457.32 -36.95,-653.8l-144.15 -0.07c-42.32,319.73 64.72,967.88 119.86,1284.52 147.97,849.81 567.25,1782.61 1047.65,2471.43l298.82 405.25z"/>
   <path class="fil3" d="M12262.28 13467.15l11.41 -31.86c17.75,13.65 13.23,5.75 28.81,29.24 16.68,16.84 34.31,36.28 89.83,31.51 64.42,-5.54 87.43,-121.21 69.56,-167.3 -92.67,-39.25 -34.27,41.03 -138.32,-106.58 -37,-52.5 -66.16,-95.5 -101.62,-145.37 -39.81,-56 -175.19,-260.08 -214.97,-287.88 -33.91,27.09 -50.88,89.71 -61.22,132.09 -190.22,31.38 -304.13,86.78 -382.71,235.2 -202.31,382.16 32.61,757.01 401.81,624.51 158.75,-56.98 228.53,-155.11 297.41,-313.56z"/>
   <path class="fil3" d="M4939.61 13644.96c-225.85,44.37 -398.53,268.5 -295.14,536.31 64.97,168.3 308.87,336.64 564.62,281.84 219.45,-47.01 401.76,-258.44 298.56,-527.54 -64.76,-168.86 -315.29,-340.26 -568.04,-290.61z"/>
   <path class="fil3" d="M9682.24 14026.27c-660.7,91.43 -535.61,899.66 28.53,824.22 634.04,-84.77 541.48,-903.11 -28.53,-824.22z"/>
   <path class="fil5" d="M2148.32 3767.62c55.95,52.5 173.29,114.33 238.57,158.02 186.69,124.95 358.98,193.45 414.64,376.42 102.99,338.57 -266.97,636 -593.31,419.48l-478.82 -306.34c-24.92,18.64 -106.84,138.06 -111.64,180.05 92.32,68.59 527.69,354.7 615.23,385.57 262.47,92.57 548.75,-9.18 705.99,-239.03 162.38,-237.37 100.24,-570.79 -66.59,-746.08 -48.38,-50.82 -544.81,-376.58 -611.83,-403.72 -27.34,29.44 -97.16,132.17 -112.25,175.63z"/>
   <path class="fil3" d="M3238.53 12484.48c-129.19,126.8 -321.82,352.63 -446.86,473.65 -57.45,55.59 -129.52,110.34 -138.05,188.55 176.99,88.81 156.5,-18.94 274.01,-97.1 94.96,99.3 142.75,183.17 306.64,230.47 189.21,54.62 333.41,-15.77 422.2,-112.25 90.26,-98.08 145.46,-261.1 89.61,-410.09 -56.76,-151.42 -166.94,-166.21 -311.99,-241.66 -20.61,-49.2 -13.81,-105.69 -47.71,-145.21l-138.8 0.89 -1.94 92.15c-0.34,2.91 -2.83,12.03 -3.16,10.44 -0.32,-1.6 -2.57,6.8 -3.95,10.17z"/>
   <path class="fil5" d="M1107.76 5866.39c104.72,54.89 164.45,0.87 300.3,149.58 70.58,77.28 122.74,186.71 87.74,335.89 -27.51,117.23 -106.27,198.02 -196.4,247.12 -138.55,75.48 -215.98,30.57 -363.79,9.75 -19.56,49.12 -44.01,146.13 -46.48,210.05 128.96,72.56 336.87,55.45 483.82,-10.41 204.6,-91.7 235.5,-208.85 307.05,-294.98 111.6,12.84 411.59,111.76 487.14,101.16 13.31,-66.99 43.27,-149.02 39.38,-210.12l-471.72 -112.85c-34.98,-136.04 1.32,-242.85 -166.57,-435.85 -79.19,-91.05 -264.11,-213.65 -414.06,-192.35l-46.41 203.01z"/>
   <path class="fil6" d="M11071.34 6125.38l0.1 21.89 1.49 1930.78 242.1 2.3c-0.97,-379.21 2.37,-758.75 2.4,-1138.05 0.01,-87.04 5.83,-792.5 -9.52,-846.91 -7.78,-27.57 -32.73,-55.07 -49.04,-84.69 -18.97,-34.45 -26.46,-67.58 -45.13,-102.38l-14.67 0c-6.23,98.41 -80.96,165.11 -127.74,217.06z"/>
   <path class="fil1" d="M4367.34 8082.13l234.32 -3.48 4.27 -1946.03c-38.36,-65.83 -89.01,-80.71 -110.38,-185.58l-48.85 6.56c-76.2,224.09 -82.31,-44.77 -82.32,457.53 -0.01,261.89 -10.8,1521.13 2.96,1671z"/>
   <path class="fil3" d="M13370.13 3684.51c59.22,117.95 225.69,335.34 258.17,420.01l-407.56 259.15c-72.38,45.53 -127.95,82.61 -202.74,130.9l-150.87 95.76c-29.84,18.92 -29.58,18.63 -49.82,42 15.87,45.63 79.07,137.38 102.21,174.55 105.66,-33.2 745.22,-491.35 829.21,-518.55 34.5,33.54 234.91,349.55 256.68,396.51 43.41,-9.36 161.21,-83.15 184.19,-114.28l-638.51 -990.76c-56.98,8.96 -135.49,71.34 -180.96,104.71z"/>
   <path class="fil6" d="M10193.23 1477.98c-536.45,99.45 -350.92,842.74 119.55,744.35 174.04,-36.39 342.92,-216.95 301.4,-435.79 -32.86,-173.18 -208.95,-347.87 -420.95,-308.56z"/>
   <path class="fil6" d="M11977.68 2551.25c-518.55,119.7 -310.06,836.69 139.85,733.6 513.14,-117.58 313.63,-838.27 -139.85,-733.6z"/>
   <path class="fil6" d="M7756.3 1576.52l-0.05 202.74c55.47,3.92 68.24,-6.54 103.32,20.76 214.57,-43.56 582.06,99.62 642.8,-79.51 86.21,-254.24 -348.14,-182.64 -526.54,-197.96 -12.1,-42.48 -7.71,-168.27 4.12,-211 190.61,-37.01 444.99,65.9 523.21,-59.41 26.86,-43.04 29.81,-115.72 -3.77,-152.98 -68.68,-76.18 -214.97,-54.7 -334.14,-57.07 -131.85,-2.62 -263.79,-6.71 -395.64,-7.6l-13.3 542.01z"/>
   <path class="fil3" d="M6616.96 14687.55c56.75,-47 239.61,-124.65 313.76,-159.68 68.12,-32.18 264.63,-120.26 309.74,-161.49 -22.52,-106.46 -310.62,-264.14 -605.49,-97.37 -315.41,178.4 -288.9,634.92 147.21,702.7 66.34,10.31 139.39,6.77 198.97,-10.22 25.42,-7.25 262.79,-89.74 146.18,-120.68 -39.96,-10.6 -90.98,70.21 -263,34.4 -101.65,-21.15 -222.76,-103.02 -247.37,-187.66z"/>
   <path class="fil6" d="M9582.95 14138.53c-415.32,91.97 -191.48,677.96 229.48,600.97 444.8,-81.34 155.99,-686.33 -229.48,-600.97z"/>
   <path class="fil6" d="M4993.95 13722.54c-155.73,40.72 -261.39,203.82 -206.16,402.3 122.35,439.79 699.84,331.98 566.24,-134.77 -39.32,-137.38 -178.58,-314.99 -360.08,-267.53z"/>
   <path class="fil3" d="M10526.83 13802.77c-66.11,-20.71 -83.79,-24.57 -164.68,-15.22 -23.39,38.91 -38.02,73.65 -42.81,131.59 123.85,89.18 37.51,-78.98 208.62,246.74 29.12,55.45 48.25,94.4 76.06,146.46 53.33,99.85 -4.91,62.39 -2.17,160.65l256.37 2.17c121.56,-207.62 -59.06,-172.1 -83.37,-174.63 -44.94,-104.32 -111.23,-212.66 -163.12,-317.42 -32.7,-66.02 -70.25,-90.33 -19.56,-154 33.84,-42.51 76.62,-83.7 136.68,-110.92 179.47,-81.36 241.34,161.34 338.64,339.72 63.27,115.99 13.51,67.74 -0.03,174.08l271.36 1.47c14.44,-56.86 36.73,-101.65 21.65,-160.13l-118.52 -15.87c-22.71,-65.73 -83.43,-164.06 -117.13,-229.62 -48.41,-94.18 -78.94,-163.26 -148.48,-210 -171.49,-115.23 -407.75,79.63 -449.52,184.91z"/>
   <path class="fil3" d="M5783.32 14924.24l-5.76 35.14 27.28 10.77c115.01,-17.49 132.71,-25.21 160.75,-122.33 47.44,-164.31 165.79,-539.21 190.67,-664.82 63.43,-13.74 130.31,-43.46 142.11,-113.09l-96.15 -35.83c20.77,-104.95 142.13,-530.17 180.57,-593.18 67.69,-4.42 62.8,6.64 99.28,45.33 53.46,-14.22 105.83,-48.75 119.23,-95.73 -98.9,-157.3 -357.56,33.2 -404.12,107.28 -23.01,36.58 -137.99,434.71 -144.99,488.13 -59.32,3.64 -125.05,40.89 -135.93,108.71l87.2 33.49 -220.14 796.13z"/>
   <path class="fil6" d="M12017.18 13058.98c-68.46,13.26 10.47,24.95 -121.16,25.2 -125.45,0.24 -234.95,66.4 -300.05,167.52 -105.32,163.61 38.53,328.51 177.18,372.02 183.75,57.66 372.24,-38.93 424.55,-165.44 59.39,-143.65 -47.73,-186.19 -180.51,-399.3z"/>
   <path class="fil5" d="M4867.43 1506.43c11.49,61.21 444.69,971.96 491.08,1087.76l197.62 -83.72c-4.11,-31.06 -421.67,-961.41 -491.45,-1079.12 -63.36,4.02 -135.07,56.09 -197.25,75.09z"/>
   <path class="fil3" d="M12739.01 13042.58c53.98,9.72 136.26,-20.5 200.65,-41.1 63.59,-20.35 89.13,-51.88 51.94,-174.82l-131.76 8.38c-92.63,-117.29 -670.04,-695.01 -834.15,-871.37 -35.63,-38.29 -78.98,-103.46 -129.88,-117.32 -91.71,174.21 17.73,229.09 124.23,333.09l652.54 681.43c68.11,71.98 78.3,51.3 66.44,181.71z"/>
   <path class="fil7" d="M4601.52 11384.7c13.85,-63.29 18.11,-971.59 4.52,-1027.65l-245.61 0.15 15.31 1019.76 225.78 7.74z"/>
   <path class="fil6" d="M3372.33 12586.49c-57.93,33.45 -110.64,103.49 -150.55,147.06 -33.59,36.67 -116.96,111.59 -146.75,149.61 -72.27,92.29 19.2,325.8 222.9,320.46 345.22,-9.04 487.87,-502.94 74.4,-617.13z"/>
   <path class="fil3" d="M7738.79 14369.28c122.5,-106.23 211.86,31.02 275.74,94.44 227.98,-3.17 190.52,-178.04 -108.78,-195.13 -306.12,-17.47 -357,160.11 -272.32,271.35 67.62,88.84 272.68,144.24 389.34,215.97 205.69,126.46 17.51,304.77 -197.99,197.78 -76.64,-38.06 -110.6,-107.6 -192.95,-84.23 -285.26,80.96 192.74,309.7 477.46,145.15 177.45,-102.55 119.85,-296.34 -12.76,-394.09 -158.08,-116.51 -381.05,-110.5 -357.75,-251.23z"/>
   <polygon class="fil1" points="11313.07,11364.7 11319.38,10364.94 11073.32,10368.7 11085.43,11371.28 "/>
   <polygon class="fil6" points="4378.32,11364.64 4590.8,11371.35 4597.45,10372.07 4373.66,10369.25 "/>
   <path class="fil8" d="M9117.25 6125.39c30.71,13.24 14.53,-6.54 21.45,28.85l12.18 -0.63c39.9,11.71 18.77,-2.49 29.25,22.05 62.72,11.49 68.11,26.31 158.74,26.86 87.91,0.53 91.3,-16.47 156.36,-27.07l29.24 -24.89 11.56 2.01c7.77,-27.42 -13.31,-12.19 27.55,-24.04 37.22,-20.78 85.06,-85.85 102.51,-119.44 30.31,-58.35 33.87,-107.44 49.81,-177.8 13.74,-67.07 6.14,-22.58 -12.91,-32.42 1.29,58.31 -24.02,34.94 -166.58,34.72l-567.61 -2.27c0.62,71.27 8.19,119.08 40.45,180.19 15.04,28.5 26.13,39.85 47.03,65.3 26.16,31.86 29.07,39.92 60.97,48.59z"/>
   <path class="fil2" d="M6050.05 6075.78l25.62 6.73 1.95 23.38c31.02,12.32 5.85,2.01 43.11,26.93 173.25,115.87 302.02,52.08 424.15,19.5 10.68,-29.39 -11.77,-11.49 26.9,-25.46 37.54,-23.08 78.18,-75.08 97.5,-111.6 27.22,-51.43 45.37,-100.46 41.43,-180.77l-733.13 -1c-4.47,58.06 -1.58,96.76 16.41,142.2 18.22,46 36.93,57.38 56.05,100.09z"/>
   <path class="fil4" d="M7490.68 5928.7c-4.21,50.61 18.36,92.63 45.72,120.07l24.56 32.05c15.74,24.5 30.49,31.29 48.86,44.79 41.32,14.85 16.03,-6.44 27.44,26.26l21.29 0.07c39.09,11.97 16.09,-6.09 27.69,24.85l24.4 -2.24c45.98,3.08 46.99,-5.31 64.05,26.23 34.63,-1.78 71.74,0.9 106.87,-1.86 58.48,-4.59 41.64,-13.14 96.58,-22.44l0.94 -17.86 31.35 -3.82 20.43 -1.51 0.76 -19.31 27.94 -6.82c24.86,-7.08 28.32,-11.02 42.57,-23.2 9.25,-35.26 -13.07,-11.04 25.76,-31.83 50.48,-85.43 72.28,-91.58 81.12,-217.98l-728.36 1.3 10.04 73.29z"/>
   <path class="fil4" d="M10470.36 5867.55c-2.07,93.51 72.21,224.74 140.12,259.15l26.18 2.71 3.4 24.15c63.83,13.79 -8.47,10.86 63.05,24.06l34.27 1.73 3.39 20.37c43.72,0.58 84.9,6.22 130.71,2.84 71.59,-5.29 47.93,-15.61 108.28,-26.58 10.96,-27.31 -10.57,-12.14 29.39,-21.93l21.3 -0.92 3.23 -20.7 37.65 -7.05c46.78,-51.95 121.51,-118.65 127.74,-217.06l-7.32 -40.78 -61.83 -12.36 -24.7 61.77c-29.53,-34.79 -24.65,47.72 -24.65,-49.41l-610.22 0z"/>
   <path class="fil3" d="M4089.91 13118.73c-0.49,97.81 39.52,75.89 -18,168.65 -27.04,43.6 -56.59,85.32 -87.19,134.64 -192.52,310.21 -102.08,146.08 -224.94,215.54 6.19,53 91.68,168.95 115.3,223.8 58.39,3.62 112.32,-8.32 153.14,-38.5 10.43,-160.12 -130.1,24.3 104.15,-339.11 96.87,-150.28 91.39,-175.61 152.72,-169.06 18.56,1.99 39.98,11.96 50.98,26.35 22.17,29.04 9.95,56.37 36.85,97.42 45.95,10.08 97.26,12.51 135.82,-10.89 27.08,-49.33 -1.69,-125.68 -31.65,-154 -43.48,-41.11 -110.08,-29.95 -178.29,-29.44 -58.73,-124.22 -25.06,-188.54 -208.88,-125.39z"/>
   <path class="fil9" d="M4601.52 11384.7c32.8,-12.14 14.27,-55.57 14.71,-106.17l3.98 -383.31c2.46,-162.05 -8.15,-359.11 5.52,-515.16l6438.78 -3.37 4.81 -21.17 -6463.28 1.55c13.6,56.05 9.33,964.36 -4.52,1027.65z"/>
   <path class="fil3" d="M8538.4 14329.32c36.89,60.02 71,28.38 86.12,109.89l46.79 359.95c8.71,113.85 -37.24,64.28 -58.99,146.5 54.27,25.12 193.19,84.13 257.05,76.8 25.77,-27.11 64.64,-81.46 70.18,-122.95 -27.53,-25.23 -57.9,-36.61 -103.21,-56.14 -20.26,-154.18 -43.95,-302.96 -61.74,-458.16 -11.7,-102.12 -6.04,-120.95 -105.76,-153.48 -79.76,-26.01 -119.67,56.3 -130.44,97.58z"/>
   <path class="fil1" d="M6588.03 14619.49l465.69 -228.73c-95.4,-236.92 -543.64,-75.01 -465.69,228.73z"/>
   <path class="fil10" d="M8722.68 13897.44c-23.94,14.74 -192.64,192.87 -198.38,225.46 -8.41,47.69 29.01,74.06 76.68,51.78 18.56,-8.68 125.46,-125.29 142.43,-144.16 115.51,-128.51 9.44,-151.62 -20.73,-133.07z"/>
   <path class="fil11" d="M7455.64 5830.39c4.21,17.7 7.53,46.77 11.66,60.04 18.12,58.32 1.89,17.3 23.38,38.27l-10.04 -73.29 728.36 -1.3c-0.59,-44.87 -49.02,-23.03 -167.29,-23l-572.83 -1.3 12.76 -159.8c-12.84,15.62 -12.23,10.5 -20.58,39.04 -0.51,1.71 -4.89,31.95 -5.19,34.44 -5.56,45.82 -8.92,42.4 -0.23,86.88z"/>
   <path class="fil12" d="M11064.52 10376.68l4.68 1006.47 185.15 5.66c74.3,-2.37 41.09,2.73 58.71,-24.11l-227.64 6.58 -12.1 -1002.58 246.05 -3.76 0.45 -8.81 -250.5 -0.62 -4.81 21.17z"/>
   <path class="fil13" d="M8264.07 21.96c-6.72,-14.31 1.6,-20.01 -22.1,-21.96l-674.96 0c-33.88,6.73 -11.11,-6.09 -31.76,23.04 249.72,-11.53 479.14,-11.2 728.82,-1.07z"/>
   <path class="fil14" d="M10023.33 4571.36l2.4 -26.78 446.52 3.18c-2.42,-43.25 -170.61,-28.17 -231.73,-28.05 -76.35,0.15 -179.72,-13.43 -245.47,13.8l28.27 37.85z"/>
   <path class="fil13" d="M21.95 8313.48c-14.66,-279.53 -10.36,-524.27 -0.78,-802.93 -30.79,15 -15.27,1.37 -21.17,34.51l0 570.78 0 1.54 0 1.55c0.02,25.23 0.2,50.54 0,75.8l0 102.53c2.18,14.18 8.17,5.98 21.95,16.23z"/>
   <path class="fil14" d="M7117.11 4553.03c115,-20.69 349.58,-10.67 474.35,-7.49l-5.69 105.22c4.83,-7.98 8.15,-7.55 13.43,-26.75 3.85,-14.06 2.96,-15.8 5.01,-31.46 4.27,-32.54 -0.26,-33.91 10.12,-61.61 -99.25,-20.9 -373.8,-10.5 -486.73,-6.67l-10.49 28.77z"/>
   <path class="fil14" d="M9060.13 4573.11l2.9 -27.09 438.74 -0.24 -8.64 -23.58c-88.84,0.19 -395.54,-16.33 -451.03,11.31 -2.46,72.96 -3.49,15.62 18.03,39.61z"/>
   <path class="fil15" d="M6163.65 4548.37c76.57,-10.77 157.09,-4.91 235.14,-4.89l186.35 -0.44c55.78,12.69 26.27,-7.49 35.19,31.18 19.84,-20.76 19.56,33.2 17.1,-40.72 -60.78,-27.62 -262.97,-9.42 -362.24,-11.32 -49.6,-0.95 -96.26,-17.12 -111.54,26.19z"/>
   <path class="fil14" d="M8091.68 4604.4l0.24 -52.9c75.38,-18.42 372.35,-13.7 457.45,-3.36 -2.73,-41.66 -71.4,-27.4 -112.32,-26.9 -257.48,3.14 -402.25,-40.71 -345.38,83.17z"/>
   <path class="fil16" d="M5232.79 4546.38l416.91 -3.31 -14.48 49.11c23.76,-16.61 8.85,5.88 25.04,-19.4 20.97,-32.73 8.02,7.69 12.81,-42.91 -69.01,-13.22 -150.85,-6.99 -225.45,-7.01l-173.46 0.33c-51.59,8.24 -28.01,1.93 -41.36,23.19z"/>
   <path class="fil13" d="M15811.66 7711.17l0 -2.17 0 -2.17 0 -2.17c-0.02,-43.63 -0.23,-87.3 0,-130.92l0 -110.85c-1.29,-14.61 -5,-1.46 -22.26,-14.12 4.89,79.43 -3.55,199.21 22.26,262.39z"/>
   <path class="fil16" d="M7512.87 2767.57c38.25,1.04 71.1,-2.22 109.02,-3.66 46.76,-1.77 72.41,10.14 90.83,-21.39 -46.59,-4.96 -69.75,-1.84 -116.01,1.16 -47.24,3.06 -74.54,-8.88 -83.84,23.89z"/>
   <path class="fil17" d="M8554.63 2797.4c-2.28,-35.9 -23.12,-24.99 -67.45,-27.61 -33,-1.96 -65.11,-4.29 -97.69,-4.01 2.65,32.99 135.8,34.15 165.14,31.62z"/>
   <path class="fil13" d="M8412.3 15789.5c-66.7,3.75 -163.88,0.93 -214.69,22.16l1.8 0 1.81 0c34.35,-0.03 68.96,-0.41 103.31,0l78.8 0c55.53,-3.9 5.99,9.02 28.97,-22.16z"/>
   <path class="fil18" d="M3238.53 12484.48c1.38,-3.37 3.63,-11.77 3.95,-10.17 0.33,1.59 2.82,-7.53 3.16,-10.44l1.94 -92.15 138.8 -0.89c-23.32,-35.87 -102.72,-19.49 -141.06,-10.11l-6.79 123.76z"/>
   <path class="fil13" d="M7659.44 15811.66l-260.07 -22.45c12.98,28.26 -12.84,20.91 24.25,22.45l100.7 0c42.88,-0.22 85.83,-0.02 128.72,0l2.14 0 2.13 0 2.14 0z"/>
   <path class="fil18" d="M7859.56 1800.02c-35.07,-27.31 -47.85,-16.84 -103.32,-20.76l0.05 -202.74 -13.54 214.34 116.8 9.17z"/>
   <path class="fil14" d="M8499.69 13046.03c54.49,1.48 94.94,3.97 117.78,-30.16 -31.8,1.33 -114.06,-3.5 -117.78,30.16z"/>
   <path class="fil19" d="M15792.79 8375.24c31.2,-17.06 9.25,7.79 17.59,-25.54 0.57,-2.27 0.99,-6.88 1.28,-12.43l0 -138.42 0 -1.66 0 -1.66c-19.27,44.27 -16.49,125.52 -18.87,179.7z"/>
   <path class="fil14" d="M7311.86 13046c-10.37,-31.28 16.18,-13.8 -34.96,-23.65 -12.51,-2.41 -49.68,-2.69 -63.36,-3.21 9.36,34.16 67.78,28.05 98.31,26.86z"/>
   <polygon class="fil20" points="13945.86,6054.39 14026.75,6076.72 14018.96,6030.88 "/>
   <path class="fil15" d="M7122.26 13018.22c-19.66,-32.16 -34.6,-23.31 -80.34,-23.74 3.58,33.71 49.04,23.61 80.34,23.74z"/>
   <path class="fil14" d="M8831.95 12995.49c47.1,-2.3 48.51,8.12 65.08,-25.74 -33.71,1.92 -62.32,-7.72 -65.08,25.74z"/>
   <path class="fil21" d="M7774.69 6200.77c-17.06,-31.53 -18.07,-23.14 -64.05,-26.23 2.15,36.16 28.34,24.87 64.05,26.23z"/>
   <path class="fil22" d="M4446.7 5953.6l48.85 -6.56c-4.37,-9.49 -3.54,-11.41 -9.73,-20.31 -14.93,-21.46 -1.92,-4.66 -21.56,-21.57l-17.56 48.44z"/>
   <path class="fil15" d="M9101.73 2890.89c-3.34,-33.88 -31.75,-23.24 -62.89,-24.03 20.32,30.63 6.56,20.48 62.89,24.03z"/>
   <path class="fil15" d="M5538.52 5398.14c43.29,-25.38 32.49,-18.72 46.94,-63.9 -21.03,14.24 -6.52,-7.2 -29.18,23.85 -20.83,28.53 -4.26,-4.12 -17.76,40.06z"/>
   <path class="fil15" d="M7111.77 2814.36c46.32,0.45 41.79,8.15 62.26,-19.25 -46.33,-1.54 -46.32,-11.14 -62.26,19.25z"/>
   <path class="fil15" d="M9285.97 2942.15c-2.4,-35.25 -13.52,-24.45 -48.39,-27.62 15.06,29.93 -4.53,21.27 48.39,27.62z"/>
   <path class="fil15" d="M9377.07 2964.39c-4.51,-30.92 -21.86,-22.56 -51.2,-25.91 5.95,31.39 15.05,21.43 51.2,25.91z"/>
   <path class="fil15" d="M9428.05 12849.65c47.71,-6.6 36.5,0.49 48.59,-27.05 -33.05,3.9 -45.91,-6.28 -48.59,27.05z"/>
   <path class="fil17" d="M4795.49 12031.08c-14.11,-30.78 -13.71,-40.19 -53.32,-48.73 10.86,20.17 3.66,13.14 22.55,29.58 25.28,21.99 5.92,6 30.77,19.15z"/>
   <path class="fil16" d="M4893.35 5386.22c24.15,-14.28 34,-24.73 47.32,-51.17l-31.49 7.58c-8.4,23.25 -7.5,18.68 -15.83,43.59z"/>
   <path class="fil16" d="M9201.98 2914.79c-1.88,-28.74 -22.59,-19.84 -51.59,-22.89 7,28.45 18.82,19.53 51.59,22.89z"/>
   <path class="fil15" d="M5883.18 3164.84c46.55,-7.39 35.35,0.54 40.9,-30.75 -48.89,9.61 -34.08,1.82 -40.9,30.75z"/>
   <path class="fil21" d="M4296.69 5334.69c27.33,-12.8 38.18,-21.62 50.21,-49.76 -39.3,16.31 -36.33,15.67 -50.21,49.76z"/>
   <path class="fil14" d="M6524.76 2942.84l40.4 -4.46 2.25 -20.01c-45.75,-1.48 -34.53,-1.26 -42.65,24.47z"/>
   <path class="fil14" d="M6460.71 12871.89c-10.74,-28.39 -1.32,-19.44 -49.14,-25.21 4.94,29.01 18.04,20.52 49.14,25.21z"/>
   <polygon class="fil21" points="11030.47,6153.13 11071.44,6147.27 11071.34,6125.38 11033.69,6132.44 "/>
   <polygon class="fil14" points="6282.26,3013.41 6322.83,3011.1 6324.91,2988.46 6286.56,2993.82 "/>
   <polygon class="fil14" points="9532.5,3011.98 9528.08,2992.55 9488.48,2987.75 9490.08,3008.62 "/>
   <path class="fil23" d="M5804.84 14970.15l-27.28 -10.77 5.76 -35.14c-24.93,29.9 -19.58,14.55 -12.3,57.44l33.81 -11.53z"/>
   <polygon class="fil17" points="6368.43,2989.11 6407.81,2984.32 6409.89,2963.91 6372.84,2969.6 "/>
   <polygon class="fil16" points="5731.63,12601.68 5727.98,12579.28 5693.01,12576.43 5694.19,12595.74 "/>
   <polygon class="fil17" points="4939.84,6201.77 4975.42,6196.89 4978.1,6176.24 4942.62,6181.47 "/>
   <polygon class="fil17" points="10740.79,6199.72 10737.39,6179.35 10703.12,6177.62 10706.47,6198.87 "/>
   <path class="fil24" d="M12262.28 13467.15l40.22 -2.62c-15.59,-23.49 -11.06,-15.59 -28.81,-29.24l-11.41 31.86z"/>
   <polygon class="fil15" points="9589.56,12794.79 9625.38,12794.31 9627.27,12773.34 9594.39,12776.22 "/>
   <polygon class="fil15" points="5446.17,12454.91 5444.5,12433.07 5413.12,12423.36 5414.39,12444.63 "/>
   <polygon class="fil14" points="9870.94,3137.98 9867.36,3119.4 9832.26,3113.19 9834.56,3132.77 "/>
   <polygon class="fil25" points="6077.99,3088.86 6111.47,3083.16 6114.89,3064.03 6079.89,3068.45 "/>
   <path class="fil17" d="M10710 4748.37l-0.76 -26.4 -29.99 -4.54c12.61,37.61 -17.24,11.57 30.75,30.95z"/>
   <polygon class="fil21" points="5693.01,12576.43 5691.81,12556.42 5656.5,12549.81 5660.33,12569.03 "/>
   <polygon class="fil14" points="9358.2,12869.36 9392.29,12868.24 9398.08,12850.37 9360.54,12852 "/>
   <path class="fil15" d="M6229.58 12796.93c-17.41,-24.71 12.56,-12.18 -40.85,-24.14l1.18 18.86 39.67 5.28z"/>
   <polygon class="fil14" points="10640.07,6153.56 10636.66,6129.41 10610.48,6126.7 10611.58,6148.51 "/>
   <path class="fil25" d="M5971.83 12697.24c-19.71,-29.26 19.08,-10.63 -38.45,-26.06l1.11 20.01 37.34 6.05z"/>
   <path class="fil17" d="M11229.23 11862.76c43.96,-18.6 17.19,6.29 28.22,-31.64l-27.32 5.01 -0.9 26.63z"/>
   <path class="fil25" d="M9843.75 12699.01l35.94 -6.05 0.95 -20.26c-53.08,14.29 -21.5,-0.88 -36.89,26.3z"/>
   <polygon class="fil21" points="10019.82,12625.39 10050.54,12616.93 10053.39,12596.79 10021.43,12605.07 "/>
   <polygon class="fil15" points="6299.63,12823.43 6295.81,12805.13 6262.21,12798.4 6264.63,12817.06 "/>
   <path class="fil14" d="M10229.55 5514.24l-0.72 -26.85 -27.35 -7.18c11.96,38.61 -8.89,15.21 28.07,34.03z"/>
   <polygon class="fil17" points="10224.86,12524.78 10253.45,12520.66 10256.4,12499.99 10227.41,12502.87 "/>
   <polygon class="fil15" points="6626.82,2912.39 6660.17,2912.25 6665.51,2894.42 6629.43,2895.99 "/>
   <path class="fil15" d="M9968.12 12649.39l33.72 -6.47 1.27 -20.05c-53.03,15.13 -21.53,0.27 -34.98,26.52z"/>
   <polygon class="fil15" points="6088.79,12749.59 6085.58,12729.54 6054.62,12722.6 6056.74,12740.75 "/>
   <path class="fil14" d="M5790.88 12626.61l-1.89 -20.79 -32.01 -7.88c12.79,27.54 -14.32,12.74 33.9,28.67z"/>
   <path class="fil26" d="M5311.35 12379.75c-11.53,-26.86 20.27,-8.8 -32.48,-29.92l-0.84 19.12 33.32 10.81z"/>
   <path class="fil16" d="M10907.03 5515.39l-0.36 -27.33 -25.59 -6c9.23,34.17 -12.87,10.56 25.95,33.33z"/>
   <path class="fil21" d="M5585.24 12524.82l-1.51 -22.9 -28.26 -1.81c11.28,32.2 -13.7,14.37 29.77,24.71z"/>
   <path class="fil14" d="M4917.91 4795.02l31.82 -10.34 -0.5 -20.26c-35.58,13.51 -18.27,0.12 -31.33,30.6z"/>
   <path class="fil15" d="M9909.61 12676.9l29.84 -7.33 1.95 -21.13c-43.65,14.61 -19.72,0.15 -31.8,28.46z"/>
   <path class="fil17" d="M10550.82 3484.33c-10.16,-33.45 12.72,-13.65 -28.79,-26.45l1.18 22.69 27.61 3.76z"/>
   <path class="fil14" d="M4123.14 4394.56l25.89 -0.47 2.38 -27.86c-41.19,20.3 -15.94,-5.62 -28.27,28.32z"/>
   <path class="fil14" d="M5190.43 12302.99l-1.68 -21.71 -27.97 -4.14c11.41,33.58 -10.49,15.67 29.65,25.85z"/>
   <path class="fil17" d="M6077.62 6105.89l-1.95 -23.38 -25.62 -6.73c11.79,39.92 -12.5,15.33 27.57,30.11z"/>
   <path class="fil15" d="M12403.01 5366.8c-7.43,-42.63 13.2,-16.16 -24.2,-38.07 9.61,44.46 -7.11,19.66 24.2,38.07z"/>
   <path class="fil14" d="M4370.54 4152.95l23.86 -4.92 0.55 -24.73c-38.03,13.5 -14.64,-9.51 -24.4,29.65z"/>
   <path class="fil14" d="M4949.24 4764.42l25.25 0.99 0.97 -27.52c-43.08,20.27 -16.45,-4.81 -26.22,26.54z"/>
   <path class="fil15" d="M5137.01 3558.33l27.54 -3.62 1.45 -22.7c-34.8,11.27 -17.82,-5.02 -29,26.31z"/>
   <path class="fil17" d="M9560.83 4598.18c-10.45,-39.34 8.06,-14.84 -24.78,-33.13l1.16 26.66 23.62 6.48z"/>
   <path class="fil15" d="M5568.11 3311.15c34.65,-10.52 18.11,5.54 29.41,-24.67l-27.72 2.17 -1.69 22.49z"/>
   <path class="fil17" d="M10621.42 12303.26l24.66 -4.97 2.23 -22.87c-39.92,13.24 -16.42,-10.46 -26.89,27.85z"/>
   <path class="fil14" d="M5718.38 3237.79c50.37,-12.62 18.16,8.57 32.66,-22.45l-30.19 2.71 -2.48 19.74z"/>
   <path class="fil16" d="M10284.35 12497.24l29.19 0.68 1.59 -23.04c-43.56,13.73 -14.79,-7.16 -30.78,22.35z"/>
   <path class="fil15" d="M4949 3680.42l26.79 -3.97 1.04 -22.27c-43.96,15.64 -16.56,-6.49 -27.84,26.24z"/>
   <path class="fil15" d="M9657.12 5740.4c-7.46,-47.28 8.28,-20.17 -21.47,-40.81 6.6,42.51 -13.75,13.06 21.47,40.81z"/>
   <path class="fil14" d="M3584.25 10727.8c-11.6,-41.77 10.47,-16.45 -26.25,-34.34 8.45,38.29 -11.2,14.45 26.25,34.34z"/>
   <path class="fil16" d="M10674.67 4721.9c-9.75,-37.12 12.71,-12.11 -23.42,-32.15l0.57 26 22.85 6.14z"/>
   <path class="fil16" d="M7978.13 6176.46c47.84,-10.54 17.82,9.26 32.28,-21.68l-31.35 3.82 -0.94 17.86z"/>
   <path class="fil17" d="M10176.44 12549.49c42.41,-10.29 18.46,7.11 29.75,-23.51l-27.92 4.36 -1.82 19.15z"/>
   <path class="fil14" d="M6228.77 5341.4c35.2,-20.43 15.23,4.24 21.42,-37.32 -29.78,20.61 -14.1,-5.95 -21.42,37.32z"/>
   <path class="fil16" d="M8030.85 6153.27c43.38,-13.84 15.09,8.96 28.7,-26.13l-27.94 6.82 -0.76 19.31z"/>
   <path class="fil14" d="M5333.62 4919c35.23,-13.92 15.3,9.06 28.53,-31.44 -40.57,18.75 -17.22,-3.92 -28.53,31.44z"/>
   <path class="fil17" d="M7637.26 6151.86c-11.4,-32.69 13.89,-11.4 -27.44,-26.26l1.39 21.46 26.04 4.8z"/>
   <path class="fil15" d="M4583.81 11858.18c-8.92,-32.7 10.04,-13.85 -27.07,-25.95l1.83 20.99 25.23 4.96z"/>
   <path class="fil15" d="M5339.45 3435.93c39.72,-14.29 13.77,6.76 27.51,-25.35l-26.52 2.85 -0.99 22.5z"/>
   <path class="fil14" d="M10094.6 3236.69l-3.36 -17.77 -29.54 -3.82c13.4,30.08 -17.41,10.53 32.9,21.59z"/>
   <path class="fil16" d="M4272.82 5363.53l23.04 -4.41 0.83 -24.43c-34.15,14.82 -14.3,-4.51 -23.87,28.84z"/>
   <path class="fil17" d="M6028.68 12723.22l-2.87 -18.12 -28.71 -3.56c13.92,31.09 -17.25,11.15 31.58,21.68z"/>
   <path class="fil21" d="M10906.49 4915.93l-1.89 -19.74 -25.69 -5.26c9.78,29.55 -4.69,17.77 27.58,25z"/>
   <path class="fil15" d="M4522.62 11812.85c-9.09,-34.86 11.2,-16.8 -25.47,-28.77 10.75,41.62 -7.97,16.58 25.47,28.77z"/>
   <path class="fil15" d="M3827.87 11077.44l-3.63 -30.73 -17.98 -4.61c6.86,38.22 -11.36,10.47 21.61,35.35z"/>
   <path class="fil17" d="M10842.63 12155.52c37.54,-12.42 18.71,5.81 26.96,-27.55 -36.93,12.43 -17.35,-5.57 -26.96,27.55z"/>
   <path class="fil15" d="M10337.84 3361.34l-2.05 -21.27 -25.71 -5.39c13.03,32.52 -11.93,12.23 27.76,26.67z"/>
   <path class="fil17" d="M10381.06 3383.07c-13.3,-28.61 12.84,-10.83 -30.8,-22.8l1.91 18.76 28.89 4.05z"/>
   <path class="fil21" d="M6544.88 6152.31l25.71 -4.05 1.19 -21.41c-38.67,13.97 -16.22,-3.93 -26.9,25.46z"/>
   <path class="fil21" d="M7686.24 6176.78c-11.6,-30.94 11.4,-12.88 -27.69,-24.85l1.58 20.18 26.11 4.67z"/>
   <path class="fil15" d="M10244.08 3310.34c-9.8,-32.29 10.72,-15.11 -28.12,-25.18 10.4,33.72 -8.7,14.79 28.12,25.18z"/>
   <path class="fil17" d="M5479.78 3358.33l25.79 -4.01 1.24 -21.09c-39.34,13.14 -13.7,-8.72 -27.03,25.09z"/>
   <path class="fil21" d="M8102.13 6103.94c34.41,-14.49 15.75,6.63 25.76,-31.83 -38.83,20.79 -16.51,-3.42 -25.76,31.83z"/>
   <path class="fil14" d="M11438.95 5386.29l-0.93 -21.62 -24.62 -3.55c11.02,33.58 -8.34,14.13 25.54,25.17z"/>
   <path class="fil15" d="M10472.77 3435.74l-1.26 -20.91 -25.79 -4.7c12.52,32.23 -12.19,11.73 27.05,25.61z"/>
   <path class="fil16" d="M4747.6 3832.29c33.39,-16.08 13.26,3.63 23.78,-28.44l-23.53 4.85 -0.24 23.59z"/>
   <path class="fil17" d="M5236.51 12329.57l-1.35 -20.53 -25.14 -5.01c11.03,32.51 -13.89,11.13 26.49,25.54z"/>
   <path class="fil14" d="M3806.26 11042.09c-8.61,-37.42 13.92,-7.06 -23.23,-33.21l4.48 28.43 18.76 4.78z"/>
   <path class="fil17" d="M10636.68 3535.24c-9.11,-33.45 12.51,-14.47 -26.47,-27.49 8.39,30.94 -6.79,15.02 26.47,27.49z"/>
   <path class="fil15" d="M5041.15 6152.45c41.96,-12.73 15.5,8.01 27.6,-24.23l-25.84 5.02 -1.77 19.2z"/>
   <path class="fil15" d="M5214.77 3509.08c37.06,-13.79 14.17,5.75 25.71,-25.92l-24.56 4.7 -1.15 21.22z"/>
   <path class="fil14" d="M11674.9 11442.53c33.65,-16.61 14.48,5.48 23.19,-31.23 -34.79,16.34 -16.86,-3.82 -23.19,31.23z"/>
   <path class="fil14" d="M10956.87 4969.08c-7.48,-33.52 10.76,-16.26 -24.42,-28.37 7.53,32.82 -9.63,13.99 24.42,28.37z"/>
   <path class="fil14" d="M4778.45 3806.64c41.89,-15.37 19.24,4.29 28.03,-27.16 -38.97,14.57 -18.07,-1.82 -28.03,27.16z"/>
   <path class="fil15" d="M10597.39 3508.86l-1.69 -19.72 -25.42 -5.46c11.91,30.65 -12.6,11.44 27.1,25.18z"/>
   <path class="fil21" d="M10749.77 3606.7c-11.65,-30.88 11.83,-10.5 -25.77,-25.57l1.2 21.41 24.57 4.16z"/>
   <path class="fil15" d="M3954.99 5635.25c38.74,-14.48 13.85,8.82 25.25,-25.2l-23.91 4 -1.34 21.2z"/>
   <path class="fil17" d="M4870.26 12078.3c-12.52,-29.62 6.69,-12.13 -28.7,-23.77l2.45 19.43 26.26 4.34z"/>
   <path class="fil14" d="M10698.26 5290.23c-8.73,-35.53 10.28,-12.74 -22.16,-32.54 5.5,38.38 -11.47,16.19 22.16,32.54z"/>
   <path class="fil15" d="M11144.25 11936.41c36.97,-15.46 15.01,7.04 24.78,-28.08 -35.37,12.93 -17.97,-4.18 -24.78,28.08z"/>
   <path class="fil21" d="M4569.23 3980c35.73,-14.19 16.28,7.76 25.27,-28.12 -34.99,12.93 -15.2,-5.73 -25.27,28.12z"/>
   <path class="fil15" d="M11082.66 11986.16c37.32,-16.48 14.79,7.56 23.96,-28.82 -32.95,13.06 -17.84,-2.9 -23.96,28.82z"/>
   <path class="fil25" d="M11044.96 5038.96c-9.56,-29.9 5.27,-15.25 -28.54,-22.6 11.13,30.26 -5.34,15.39 28.54,22.6z"/>
   <path class="fil15" d="M4670.05 11934.27c-9.32,-33.65 12.14,-12.99 -24.77,-27.45 7.53,33.88 -12.75,13.65 24.77,27.45z"/>
   <path class="fil15" d="M4870.28 5415.37c32.31,-18.56 12.98,3.52 23.07,-29.15l-22.14 5.22 -0.93 23.93z"/>
   <path class="fil15" d="M10934.18 3730.81c-9.06,-31.36 14.22,-10.96 -25.89,-27.16 7.82,30.92 -10.78,13.65 25.89,27.16z"/>
   <path class="fil15" d="M5431.37 3382.67c39.73,-9.5 19.16,6.75 29.06,-22.87 -43.96,11.97 -17.49,-6.95 -29.06,22.87z"/>
   <path class="fil17" d="M10943.96 12080.47c36.71,-8.61 18.32,6.55 28.82,-23.18 -35.73,10.45 -18.31,-5.45 -28.82,23.18z"/>
   <path class="fil14" d="M10831.85 3658.15c-9.56,-32.68 7.71,-14.62 -26.79,-24.98 10.02,29.89 -9.37,13.21 26.79,24.98z"/>
   <path class="fil21" d="M11019.48 12032.3c31.61,-13.11 14.59,6.54 21.51,-30.14 -33.06,17.53 -13.77,-6.97 -21.51,30.14z"/>
   <path class="fil15" d="M11039.3 5663.99c-5.02,-35.89 9.75,-17.45 -21.5,-32.14 8.69,34.68 -9.61,11.31 21.5,32.14z"/>
   <path class="fil17" d="M10860.18 3680.72c-9.61,-28.28 6.17,-14.56 -28.32,-22.57 11.13,29.04 -3.94,14.42 28.32,22.57z"/>
   <path class="fil21" d="M5039.99 12204.66c-7.75,-30.96 8.11,-15.03 -25.21,-25.28 9.56,31.11 -11.12,12.7 25.21,25.28z"/>
   <path class="fil15" d="M4964.61 12157.68c-7.85,-33.68 9.85,-15.43 -23.51,-27.35 8.06,32.24 -10.62,12.65 23.51,27.35z"/>
   <path class="fil15" d="M9536.03 6152.57c40.05,-13.64 16.59,5.14 27.55,-24.04 -40.87,11.85 -19.78,-3.37 -27.55,24.04z"/>
   <path class="fil14" d="M10979.78 6175.98c43.91,-11.37 18.94,6 29.39,-21.93 -39.96,9.79 -18.42,-5.37 -29.39,21.93z"/>
   <path class="fil15" d="M10546.15 12351.92c36.26,-10.69 18.57,7.04 25.92,-25.25 -37.42,14.28 -13.49,-6.88 -25.92,25.25z"/>
   <path class="fil15" d="M4916.19 3706.42c32.24,-12.86 15.75,4.53 23.45,-27.56 -36.55,15.29 -14.99,-7.24 -23.45,27.56z"/>
   <path class="fil21" d="M9180.13 6175.66c-10.48,-24.54 10.65,-10.34 -29.25,-22.05 10.01,29.9 -10.38,13.23 29.25,22.05z"/>
   <path class="fil27" d="M4988.13 3656.18c33.39,-11.26 18.5,4.51 24.92,-25.72 -37.71,15.06 -14.24,-5.7 -24.92,25.72z"/>
   <path class="fil21" d="M3755.56 10973.53c-11.2,-42.71 8.29,-14.03 -20.83,-34.18 6.53,38.42 -6.65,17.8 20.83,34.18z"/>
   <path class="fil16" d="M11460.97 5412.81c-7.06,-35.12 8,-16.86 -22.02,-26.52 6.37,29.71 -15.09,8.96 22.02,26.52z"/>
   <polygon class="fil14" points="3457.28,5287.94 3478.85,5282.51 3480.89,5253.14 "/>
   <polygon class="fil21" points="4940.67,5335.05 4964.16,5333.2 4964.89,5307.87 "/>
   <polygon class="fil14" points="9495.23,6175.45 9522.46,6172.47 9524.47,6150.56 "/>
   <polygon class="fil17" points="4741.28,4942.17 4767.45,4937.13 4769.79,4914.44 "/>
   <polygon class="fil14" points="11612.7,5536.03 11612.21,5513.02 11586.85,5507.46 "/>
   <polygon class="fil14" points="4394.94,4123.3 4419.72,4122.05 4421.27,4098.85 "/>
   <polygon class="fil14" points="5497.84,4746.32 5519.21,4738.75 5520.17,4711.83 "/>
   <polygon class="fil21" points="10982.2,12058.91 11006.56,12030.44 10982.55,12035.52 "/>
   <polygon class="fil14" points="4830.48,12058.1 4829.75,12036.16 4804.55,12030.91 "/>
   <polygon class="fil15" points="4081.54,4452.29 4103.62,4424.47 4082.04,4427.5 "/>
   <polygon class="fil14" points="5260.43,3484.11 5283.22,3479.86 5284.77,3456.64 "/>
   <path class="fil21" d="M12005.88 11046.51l25.42 -34.64c-40.78,22.91 -17.39,-4.35 -25.42,34.64z"/>
   <polygon class="fil14" points="4893.58,4817.82 4917.91,4795.02 4895.23,4795.82 "/>
   <path class="fil15" d="M12081.96 10948.3l24.89 -31.54c-36.62,15.98 -17.52,-5.54 -24.89,31.54z"/>
   <path class="fil14" d="M11909.16 4648.2l-21.7 -33.88c4.54,37.6 -10.86,16.5 21.7,33.88z"/>
   <polygon class="fil15" points="4594.5,3951.88 4616.25,3948.11 4616.81,3925.65 "/>
   <polygon class="fil15" points="10223.48,4797.96 10222.42,4774.46 10201.69,4769.49 "/>
   <path class="fil17" d="M4063.56 5536.11l25.34 -30.01c-35.34,14.67 -18.51,-2.96 -25.34,30.01z"/>
   <path class="fil15" d="M4881.56 3732.82l24.56 -27.87c-35.18,12.3 -17.75,-7.52 -24.56,27.87z"/>
   <path class="fil15" d="M7560.96 6080.82l-24.56 -32.05c7.79,35.6 -9.56,15.58 24.56,32.05z"/>
   <path class="fil14" d="M10143.38 3260.39l-28.41 -24.26c10.1,31.6 -13.16,13.82 28.41,24.26z"/>
   <path class="fil15" d="M6252.93 5293.6l22.11 -34c-30.28,15.82 -14.47,-5.81 -22.11,34z"/>
   <path class="fil14" d="M10746.67 5340.32l-22.38 -31.73c6.83,37.34 -10.89,14.78 22.38,31.73z"/>
   <path class="fil17" d="M10932.45 4940.71c-7.5,-31.02 6.83,-15.63 -25.95,-24.78l25.95 24.78z"/>
   <path class="fil21" d="M3680.86 4946.31c31.91,-17.59 13.36,7.32 24.91,-33.43l-24.91 33.43z"/>
   <path class="fil21" d="M10426.45 3410l-25.85 -25.08c8.05,30.72 -8.1,14.79 25.85,25.08z"/>
   <path class="fil21" d="M11413.41 5361.11l-23.26 -26.32c8.27,35.16 -9.62,16.31 23.26,26.32z"/>
   <path class="fil14" d="M3905.58 4651.31c32.21,-20.35 14.9,3.29 21.51,-33.77l-21.51 33.77z"/>
   <path class="fil14" d="M10302.3 4872.82l-24.41 -31.27c7.76,34.52 -12.65,10.54 24.41,31.27z"/>
   <path class="fil14" d="M4608.76 11883.57l-24.95 -25.39c6.92,30.28 -8.02,14.89 24.95,25.39z"/>
   <path class="fil15" d="M10586.36 12328.75c37.42,-13.21 17.43,4.31 25.88,-26.16l-25.88 26.16z"/>
   <path class="fil14" d="M5077.62 6129.19c32.51,-15.72 15.61,3.49 22.28,-30.25l-22.28 30.25z"/>
   <path class="fil21" d="M6102.73 4625.81l21.59 -35.22c-30.2,18.55 -11.61,-8.01 -21.59,35.22z"/>
   <path class="fil21" d="M5064.36 3608.45c34.27,-12.8 16.14,7.41 23.33,-26.56l-23.33 26.56z"/>
   <path class="fil16" d="M11065.62 3830.31c-6.29,-33.8 10.48,-13.79 -22.58,-27.39l22.58 27.39z"/>
   <path class="fil15" d="M10201.69 4769.49l-19.01 -30.57c5.47,37.57 -8.74,18.12 19.01,30.57z"/>
   <path class="fil15" d="M9138.7 6154.24c-6.92,-35.39 9.27,-15.61 -21.45,-28.85l21.45 28.85z"/>
   <path class="fil21" d="M11784.73 5681.91l-25.44 -24.95c9.27,30.73 -7.76,15.03 25.44,24.95z"/>
   <path class="fil21" d="M11016.42 5016.37l-24.04 -26.3c9.53,33.1 -10.96,14.44 24.04,26.3z"/>
   <path class="fil14" d="M11066.25 5065.83c-7.23,-35.25 9.05,-15.74 -21.29,-26.87l21.29 26.87z"/>
   <path class="fil14" d="M5621.02 3285.56c40.58,-11.48 16.52,6.75 26.51,-22.58l-26.51 22.58z"/>
   <path class="fil21" d="M10191.88 3284.97l-26.02 -22.15c8.33,27.98 -6.98,13.5 26.02,22.15z"/>
   <path class="fil14" d="M11755.77 4476.61l-19.47 -31.85c6.7,36.56 -10.56,13.18 19.47,31.85z"/>
   <path class="fil14" d="M4891.24 12105.54c-8.31,-35.37 11.13,-12.47 -20.98,-27.24l20.98 27.24z"/>
   <polygon class="fil14" points="9609.09,4674.73 9586.11,4642.72 "/>
   <polygon class="fil15" points="9360.89,5172.34 9342.3,5129.12 "/>
   <polygon class="fil15" points="11807.07,5708.67 11784.73,5681.91 "/>
   <polygon class="fil15" points="9952.76,5142.86 9932.71,5104.16 "/>
   <polygon class="fil15" points="12529.28,10211.58 12548.52,10172.03 "/>
   <polygon class="fil15" points="4103.62,4424.47 4123.14,4394.56 "/>
   <polygon class="fil21" points="10967,5586.29 10948.62,5553.89 "/>
   <polygon class="fil14" points="4497.15,11784.08 4472.93,11758.97 "/>
   <polygon class="fil17" points="3980.24,5610.04 4003.1,5583.31 "/>
   <polygon class="fil15" points="10922.97,12108.11 10943.96,12080.47 "/>
   <polygon class="fil15" points="12005.67,4777.01 11982.78,4736.82 "/>
   <polygon class="fil15" points="3066.84,6110.36 3084.62,6070.03 "/>
   <polygon class="fil15" points="5388.68,3410.52 5411.84,3384.89 "/>
   <polygon class="fil14" points="11188.55,3931.56 11169.02,3902.77 "/>
   <polygon class="fil15" points="11811.85,11295.71 11832.52,11257.07 "/>
  </g>
 </g>
</svg>
